<mxfile host="65bd71144e">
    <diagram id="HEYRBrr34Ea68B-RaoFX" name="Page-1">
        <mxGraphModel dx="2877" dy="2398" grid="1" gridSize="10" guides="1" tooltips="1" connect="1" arrows="1" fold="1" page="1" pageScale="1" pageWidth="850" pageHeight="1100" math="0" shadow="0">
            <root>
                <mxCell id="0"/>
                <mxCell id="1" parent="0"/>
                <mxCell id="17" style="edgeStyle=none;html=1;entryX=0.5;entryY=0;entryDx=0;entryDy=0;" parent="1" source="5" target="6" edge="1">
                    <mxGeometry relative="1" as="geometry"/>
                </mxCell>
                <mxCell id="102" style="html=1;entryX=0.475;entryY=-0.052;entryDx=0;entryDy=0;entryPerimeter=0;" parent="1" source="5" target="103" edge="1">
                    <mxGeometry relative="1" as="geometry">
                        <mxPoint x="-130" y="50" as="targetPoint"/>
                    </mxGeometry>
                </mxCell>
                <mxCell id="138" style="edgeStyle=none;html=1;fontColor=#6a00ff;" parent="1" source="5" target="139" edge="1">
                    <mxGeometry relative="1" as="geometry">
                        <mxPoint x="600" y="-40" as="targetPoint"/>
                    </mxGeometry>
                </mxCell>
                <mxCell id="5" value="admin[editor]" style="whiteSpace=wrap;html=1;fillColor=#1ba1e2;fontColor=#ffffff;strokeColor=#006EAF;" parent="1" vertex="1">
                    <mxGeometry x="160" y="-340" width="120" height="60" as="geometry"/>
                </mxCell>
                <mxCell id="227" style="edgeStyle=orthogonalEdgeStyle;html=1;fontColor=#FFFFFF;" parent="1" source="6" target="7" edge="1">
                    <mxGeometry relative="1" as="geometry">
                        <Array as="points">
                            <mxPoint x="180" y="30"/>
                            <mxPoint x="180" y="30"/>
                        </Array>
                    </mxGeometry>
                </mxCell>
                <mxCell id="6" value="githubContorlor" style="whiteSpace=wrap;html=1;fillColor=#6d8764;fontColor=#ffffff;strokeColor=#3A5431;" parent="1" vertex="1">
                    <mxGeometry x="20" y="10" width="120" height="60" as="geometry"/>
                </mxCell>
                <mxCell id="135" style="edgeStyle=none;html=1;fontColor=#6a00ff;" parent="1" source="7" target="137" edge="1">
                    <mxGeometry relative="1" as="geometry">
                        <mxPoint x="630" y="90" as="targetPoint"/>
                    </mxGeometry>
                </mxCell>
                <mxCell id="165" style="edgeStyle=none;html=1;exitX=1;exitY=1;exitDx=0;exitDy=0;fontColor=#FFFFFF;" parent="1" source="7" target="166" edge="1">
                    <mxGeometry relative="1" as="geometry">
                        <mxPoint x="650" y="70" as="targetPoint"/>
                    </mxGeometry>
                </mxCell>
                <mxCell id="7" value="&lt;b&gt;isGithubController[access]&lt;/b&gt;&lt;br&gt;&lt;b&gt;isLeaderControler[access]&lt;/b&gt;&lt;br&gt;&lt;b&gt;isAdmin[edit,delete, view, access] All&lt;/b&gt;&lt;br&gt;&lt;b&gt;isSquaLeader[edit,delete, view, access]&lt;/b&gt;&lt;br&gt;suqadLeader" style="whiteSpace=wrap;html=1;fillColor=#a20025;fontColor=#ffffff;strokeColor=#6F0000;" parent="1" vertex="1">
                    <mxGeometry x="315" y="-10" width="245" height="80" as="geometry"/>
                </mxCell>
                <mxCell id="21" value="" style="edgeStyle=none;html=1;" parent="1" source="8" target="20" edge="1">
                    <mxGeometry relative="1" as="geometry">
                        <Array as="points">
                            <mxPoint x="426" y="320"/>
                        </Array>
                    </mxGeometry>
                </mxCell>
                <mxCell id="90" style="edgeStyle=orthogonalEdgeStyle;html=1;entryX=1;entryY=0.75;entryDx=0;entryDy=0;" parent="1" source="8" target="55" edge="1">
                    <mxGeometry relative="1" as="geometry">
                        <Array as="points">
                            <mxPoint x="425" y="340"/>
                            <mxPoint x="340" y="340"/>
                            <mxPoint x="340" y="435"/>
                            <mxPoint x="320" y="435"/>
                        </Array>
                    </mxGeometry>
                </mxCell>
                <mxCell id="92" style="edgeStyle=orthogonalEdgeStyle;html=1;exitX=0.5;exitY=1;exitDx=0;exitDy=0;entryX=1.015;entryY=0.611;entryDx=0;entryDy=0;entryPerimeter=0;" parent="1" source="8" target="57" edge="1">
                    <mxGeometry relative="1" as="geometry">
                        <Array as="points">
                            <mxPoint x="425" y="340"/>
                            <mxPoint x="340" y="340"/>
                            <mxPoint x="340" y="507"/>
                        </Array>
                    </mxGeometry>
                </mxCell>
                <mxCell id="93" style="edgeStyle=orthogonalEdgeStyle;html=1;entryX=1.004;entryY=0.592;entryDx=0;entryDy=0;entryPerimeter=0;" parent="1" source="8" target="66" edge="1">
                    <mxGeometry relative="1" as="geometry">
                        <Array as="points">
                            <mxPoint x="425" y="340"/>
                            <mxPoint x="340" y="340"/>
                            <mxPoint x="340" y="587"/>
                            <mxPoint x="321" y="587"/>
                            <mxPoint x="321" y="586"/>
                        </Array>
                    </mxGeometry>
                </mxCell>
                <mxCell id="8" value="&lt;font color=&quot;#f5f0f0&quot;&gt;&lt;b&gt;isSquadLeader[edit,vew, delete]&lt;br&gt;other[view]&lt;/b&gt;&lt;br&gt;student&lt;/font&gt;" style="whiteSpace=wrap;html=1;fillColor=#fa6800;fontColor=#000000;strokeColor=#C73500;" parent="1" vertex="1">
                    <mxGeometry x="324" y="140" width="202" height="60" as="geometry"/>
                </mxCell>
                <mxCell id="16" style="edgeStyle=none;html=1;" parent="1" source="5" target="7" edge="1">
                    <mxGeometry relative="1" as="geometry"/>
                </mxCell>
                <mxCell id="99" style="edgeStyle=orthogonalEdgeStyle;html=1;entryX=0;entryY=0.75;entryDx=0;entryDy=0;" parent="1" source="6" target="66" edge="1">
                    <mxGeometry relative="1" as="geometry">
                        <mxPoint x="60" y="200" as="sourcePoint"/>
                        <Array as="points">
                            <mxPoint x="60" y="595"/>
                        </Array>
                    </mxGeometry>
                </mxCell>
                <mxCell id="19" style="edgeStyle=none;html=1;" parent="1" source="7" target="8" edge="1">
                    <mxGeometry relative="1" as="geometry">
                        <mxPoint x="420" y="120" as="sourcePoint"/>
                    </mxGeometry>
                </mxCell>
                <mxCell id="24" value="" style="edgeStyle=none;html=1;entryX=0;entryY=0.5;entryDx=0;entryDy=0;" parent="1" source="20" target="23" edge="1">
                    <mxGeometry relative="1" as="geometry"/>
                </mxCell>
                <mxCell id="26" style="edgeStyle=none;html=1;entryX=0;entryY=0.5;entryDx=0;entryDy=0;" parent="1" source="20" target="27" edge="1">
                    <mxGeometry relative="1" as="geometry">
                        <mxPoint x="840" y="750" as="targetPoint"/>
                        <Array as="points"/>
                    </mxGeometry>
                </mxCell>
                <mxCell id="28" style="edgeStyle=none;html=1;entryX=0;entryY=0.5;entryDx=0;entryDy=0;" parent="1" source="20" target="30" edge="1">
                    <mxGeometry relative="1" as="geometry">
                        <mxPoint x="880" y="840" as="targetPoint"/>
                    </mxGeometry>
                </mxCell>
                <mxCell id="33" style="edgeStyle=none;html=1;entryX=-0.012;entryY=0.452;entryDx=0;entryDy=0;entryPerimeter=0;" parent="1" source="20" target="32" edge="1">
                    <mxGeometry relative="1" as="geometry"/>
                </mxCell>
                <mxCell id="34" style="edgeStyle=none;html=1;entryX=0;entryY=0.5;entryDx=0;entryDy=0;" parent="1" source="20" target="35" edge="1">
                    <mxGeometry relative="1" as="geometry">
                        <mxPoint x="850" y="600" as="targetPoint"/>
                    </mxGeometry>
                </mxCell>
                <mxCell id="38" style="edgeStyle=none;html=1;entryX=0.003;entryY=0.594;entryDx=0;entryDy=0;entryPerimeter=0;" parent="1" source="20" target="39" edge="1">
                    <mxGeometry relative="1" as="geometry">
                        <mxPoint x="657" y="980" as="targetPoint"/>
                    </mxGeometry>
                </mxCell>
                <mxCell id="40" style="edgeStyle=none;html=1;entryX=0;entryY=0.5;entryDx=0;entryDy=0;" parent="1" source="20" target="41" edge="1">
                    <mxGeometry relative="1" as="geometry">
                        <mxPoint x="520" y="750.0000000000005" as="targetPoint"/>
                    </mxGeometry>
                </mxCell>
                <mxCell id="43" style="edgeStyle=none;html=1;entryX=0;entryY=0.5;entryDx=0;entryDy=0;" parent="1" source="20" target="42" edge="1">
                    <mxGeometry relative="1" as="geometry"/>
                </mxCell>
                <mxCell id="44" style="edgeStyle=none;html=1;entryX=-0.025;entryY=0.628;entryDx=0;entryDy=0;entryPerimeter=0;" parent="1" source="20" target="45" edge="1">
                    <mxGeometry relative="1" as="geometry">
                        <mxPoint x="546" y="860" as="targetPoint"/>
                    </mxGeometry>
                </mxCell>
                <mxCell id="84" style="edgeStyle=none;html=1;entryX=0;entryY=0.5;entryDx=0;entryDy=0;" parent="1" source="20" target="86" edge="1">
                    <mxGeometry relative="1" as="geometry">
                        <mxPoint x="640" y="300" as="targetPoint"/>
                    </mxGeometry>
                </mxCell>
                <mxCell id="121" style="html=1;entryX=0;entryY=0.5;entryDx=0;entryDy=0;" parent="1" source="20" target="123" edge="1">
                    <mxGeometry relative="1" as="geometry">
                        <mxPoint x="640" y="470" as="targetPoint"/>
                    </mxGeometry>
                </mxCell>
                <mxCell id="152" style="edgeStyle=none;html=1;fontColor=#6a00ff;entryX=0.01;entryY=0.613;entryDx=0;entryDy=0;entryPerimeter=0;" parent="1" source="20" target="153" edge="1">
                    <mxGeometry relative="1" as="geometry">
                        <mxPoint x="650" y="1030.6896551724137" as="targetPoint"/>
                    </mxGeometry>
                </mxCell>
                <mxCell id="20" value="&lt;b&gt;&lt;font color=&quot;#ffffff&quot;&gt;isLader[edit,vew,delete]&lt;/font&gt;&lt;br&gt;&lt;font color=&quot;#ffffff&quot;&gt;isMiniLeader[view]&lt;/font&gt;&lt;br&gt;&lt;font color=&quot;#ffffff&quot;&gt;other[view]&lt;/font&gt;&lt;/b&gt;&lt;br&gt;&lt;font color=&quot;#ffffff&quot;&gt;studentifo&lt;/font&gt;" style="whiteSpace=wrap;html=1;fillColor=#fa6800;strokeColor=#C73500;fontColor=#000000;" parent="1" vertex="1">
                    <mxGeometry x="340" y="440" width="145" height="60" as="geometry"/>
                </mxCell>
                <mxCell id="23" value="name" style="whiteSpace=wrap;html=1;fillColor=#fa6800;strokeColor=#C73500;fontColor=#000000;" parent="1" vertex="1">
                    <mxGeometry x="691" y="330" width="120" height="60" as="geometry"/>
                </mxCell>
                <mxCell id="27" value="age" style="whiteSpace=wrap;html=1;fillColor=#fa6800;fontColor=#000000;strokeColor=#C73500;" parent="1" vertex="1">
                    <mxGeometry x="691" y="400" width="120" height="60" as="geometry"/>
                </mxCell>
                <mxCell id="30" value="student fb link" style="whiteSpace=wrap;html=1;fillColor=#fa6800;fontColor=#000000;strokeColor=#C73500;" parent="1" vertex="1">
                    <mxGeometry x="691" y="470" width="120" height="60" as="geometry"/>
                </mxCell>
                <mxCell id="32" value="gamil" style="whiteSpace=wrap;html=1;fillColor=#fa6800;fontColor=#000000;strokeColor=#C73500;" parent="1" vertex="1">
                    <mxGeometry x="691" y="540" width="120" height="60" as="geometry"/>
                </mxCell>
                <mxCell id="35" value="id" style="whiteSpace=wrap;html=1;fillColor=#fa6800;strokeColor=#C73500;fontColor=#000000;" parent="1" vertex="1">
                    <mxGeometry x="691" y="190" width="120" height="60" as="geometry"/>
                </mxCell>
                <mxCell id="39" value="paretn fb link" style="whiteSpace=wrap;html=1;fillColor=#fa6800;strokeColor=#C73500;fontColor=#000000;" parent="1" vertex="1">
                    <mxGeometry x="691" y="840" width="120" height="60" as="geometry"/>
                </mxCell>
                <mxCell id="41" value="group" style="whiteSpace=wrap;html=1;fillColor=#fa6800;strokeColor=#C73500;fontColor=#000000;" parent="1" vertex="1">
                    <mxGeometry x="691" y="760" width="120" height="60" as="geometry"/>
                </mxCell>
                <mxCell id="42" value="speed" style="whiteSpace=wrap;html=1;fillColor=#fa6800;strokeColor=#C73500;fontColor=#000000;" parent="1" vertex="1">
                    <mxGeometry x="691" y="690" width="120" height="60" as="geometry"/>
                </mxCell>
                <mxCell id="45" value="github link" style="whiteSpace=wrap;html=1;fillColor=#fa6800;strokeColor=#C73500;fontColor=#000000;" parent="1" vertex="1">
                    <mxGeometry x="691" y="610" width="120" height="60" as="geometry"/>
                </mxCell>
                <mxCell id="223" style="edgeStyle=orthogonalEdgeStyle;html=1;entryX=0;entryY=0.5;entryDx=0;entryDy=0;fontColor=#FFFFFF;" parent="1" source="55" target="7" edge="1">
                    <mxGeometry relative="1" as="geometry">
                        <Array as="points">
                            <mxPoint x="160" y="425"/>
                            <mxPoint x="160" y="10"/>
                            <mxPoint x="315" y="10"/>
                        </Array>
                    </mxGeometry>
                </mxCell>
                <mxCell id="55" value="&lt;b&gt;isLeader[edit,vew, delete]&lt;br&gt;other[&lt;/b&gt;view&lt;b&gt;]&lt;/b&gt;&lt;br&gt;student comment proof" style="whiteSpace=wrap;html=1;fillColor=#a20025;strokeColor=#6F0000;fontColor=#ffffff;" parent="1" vertex="1">
                    <mxGeometry x="170" y="390" width="150" height="70" as="geometry"/>
                </mxCell>
                <mxCell id="89" style="edgeStyle=orthogonalEdgeStyle;html=1;entryX=0;entryY=0.5;entryDx=0;entryDy=0;" parent="1" source="57" target="7" edge="1">
                    <mxGeometry relative="1" as="geometry">
                        <Array as="points">
                            <mxPoint x="160" y="500"/>
                            <mxPoint x="160" y="10"/>
                        </Array>
                    </mxGeometry>
                </mxCell>
                <mxCell id="57" value="&lt;b&gt;isLeader[edit,vew, delete]&lt;br&gt;other[&lt;/b&gt;view&lt;b&gt;]&lt;/b&gt;&lt;br&gt;student comment" style="whiteSpace=wrap;html=1;fillColor=#a20025;strokeColor=#6F0000;fontColor=#ffffff;" parent="1" vertex="1">
                    <mxGeometry x="170" y="470" width="150" height="60" as="geometry"/>
                </mxCell>
                <mxCell id="96" style="edgeStyle=orthogonalEdgeStyle;html=1;exitX=0.466;exitY=0.992;exitDx=0;exitDy=0;exitPerimeter=0;" parent="1" source="66" target="98" edge="1">
                    <mxGeometry relative="1" as="geometry">
                        <mxPoint x="260" y="670" as="targetPoint"/>
                        <Array as="points">
                            <mxPoint x="250" y="609"/>
                            <mxPoint x="250" y="640"/>
                            <mxPoint x="110" y="640"/>
                        </Array>
                    </mxGeometry>
                </mxCell>
                <mxCell id="100" style="edgeStyle=orthogonalEdgeStyle;html=1;entryX=0.5;entryY=0;entryDx=0;entryDy=0;exitX=0.5;exitY=1;exitDx=0;exitDy=0;" parent="1" source="66" target="101" edge="1">
                    <mxGeometry relative="1" as="geometry">
                        <mxPoint x="320" y="650" as="targetPoint"/>
                        <mxPoint x="260" y="610" as="sourcePoint"/>
                        <Array as="points">
                            <mxPoint x="250" y="640"/>
                            <mxPoint x="400" y="640"/>
                            <mxPoint x="400" y="660"/>
                        </Array>
                    </mxGeometry>
                </mxCell>
                <mxCell id="104" style="edgeStyle=orthogonalEdgeStyle;html=1;" parent="1" source="66" target="105" edge="1">
                    <mxGeometry relative="1" as="geometry">
                        <mxPoint x="260" y="670" as="targetPoint"/>
                    </mxGeometry>
                </mxCell>
                <mxCell id="130" style="edgeStyle=orthogonalEdgeStyle;html=1;entryX=0.5;entryY=0;entryDx=0;entryDy=0;" parent="1" source="66" target="129" edge="1">
                    <mxGeometry relative="1" as="geometry">
                        <Array as="points">
                            <mxPoint x="250" y="640"/>
                            <mxPoint x="-50" y="640"/>
                        </Array>
                    </mxGeometry>
                </mxCell>
                <mxCell id="66" value="&lt;b&gt;isLeader[view]&lt;br&gt;isMiniLeader[veiw]&lt;br&gt;isStudent[lock]&lt;br&gt;other[edit]&lt;/b&gt;&lt;br&gt;fine" style="whiteSpace=wrap;html=1;fillColor=#76608a;fontColor=#ffffff;strokeColor=#432D57;" parent="1" vertex="1">
                    <mxGeometry x="175" y="540" width="140" height="80" as="geometry"/>
                </mxCell>
                <mxCell id="86" value="pushup" style="whiteSpace=wrap;html=1;fillColor=#fa6800;strokeColor=#C73500;fontColor=#000000;" parent="1" vertex="1">
                    <mxGeometry x="691" y="260" width="120" height="60" as="geometry"/>
                </mxCell>
                <mxCell id="95" value="ROLES&lt;br&gt;[&quot;edit&quot;, &quot;delete&quot;, &quot;vew&quot;]" style="whiteSpace=wrap;html=1;" parent="1" vertex="1">
                    <mxGeometry x="430" y="-190" width="170" height="60" as="geometry"/>
                </mxCell>
                <mxCell id="146" value="" style="edgeStyle=orthogonalEdgeStyle;html=1;fontColor=#6a00ff;" parent="1" source="98" target="145" edge="1">
                    <mxGeometry relative="1" as="geometry"/>
                </mxCell>
                <mxCell id="98" value="gihthubControllFine" style="whiteSpace=wrap;html=1;fillColor=#6d8764;fontColor=#ffffff;strokeColor=#3A5431;" parent="1" vertex="1">
                    <mxGeometry x="50" y="660" width="120" height="60" as="geometry"/>
                </mxCell>
                <mxCell id="211" value="" style="edgeStyle=none;html=1;fontColor=#FFFFFF;" parent="1" source="101" target="207" edge="1">
                    <mxGeometry relative="1" as="geometry"/>
                </mxCell>
                <mxCell id="101" value="leaderControllFine" style="whiteSpace=wrap;html=1;fillColor=#e3c800;fontColor=#000000;strokeColor=#B09500;" parent="1" vertex="1">
                    <mxGeometry x="340" y="660" width="120" height="60" as="geometry"/>
                </mxCell>
                <mxCell id="124" style="edgeStyle=orthogonalEdgeStyle;html=1;entryX=0;entryY=0.75;entryDx=0;entryDy=0;exitX=0.591;exitY=0.982;exitDx=0;exitDy=0;exitPerimeter=0;" parent="1" source="103" target="66" edge="1">
                    <mxGeometry relative="1" as="geometry">
                        <mxPoint x="-80" y="120" as="sourcePoint"/>
                        <Array as="points">
                            <mxPoint x="-79" y="595"/>
                        </Array>
                    </mxGeometry>
                </mxCell>
                <mxCell id="225" value="" style="edgeStyle=orthogonalEdgeStyle;html=1;fontColor=#FFFFFF;" parent="1" source="103" target="6" edge="1">
                    <mxGeometry relative="1" as="geometry"/>
                </mxCell>
                <mxCell id="103" value="&lt;span style=&quot;color: rgb(0, 0, 0);&quot;&gt;leaderControll&lt;br&gt;&lt;/span&gt;" style="whiteSpace=wrap;html=1;fillColor=#e3c800;fontColor=#000000;strokeColor=#B09500;" parent="1" vertex="1">
                    <mxGeometry x="-150" y="10" width="120" height="60" as="geometry"/>
                </mxCell>
                <mxCell id="149" style="edgeStyle=orthogonalEdgeStyle;html=1;entryX=1;entryY=0.5;entryDx=0;entryDy=0;fontColor=#6a00ff;" parent="1" source="105" target="98" edge="1">
                    <mxGeometry relative="1" as="geometry"/>
                </mxCell>
                <mxCell id="105" value="miniiLeaderContollFine" style="whiteSpace=wrap;html=1;fillColor=#6a00ff;fontColor=#ffffff;strokeColor=#3700CC;" parent="1" vertex="1">
                    <mxGeometry x="190" y="660" width="120" height="60" as="geometry"/>
                </mxCell>
                <mxCell id="107" value="&lt;span&gt;isSquadLeader[view,edit, delete]&lt;br&gt;isLeaderCntrolor[&lt;/span&gt;view&lt;span&gt;]&lt;br&gt;other[lock]&lt;/span&gt;&lt;br&gt;&lt;span style=&quot;font-weight: normal;&quot;&gt;miniLeader&lt;/span&gt;" style="whiteSpace=wrap;html=1;fillColor=#6a00ff;strokeColor=#3700CC;fontColor=#ffffff;fontStyle=1" parent="1" vertex="1">
                    <mxGeometry x="330" y="230" width="190" height="60" as="geometry"/>
                </mxCell>
                <mxCell id="123" value="&lt;b&gt;isMiniLeaderContrller[view]&lt;br&gt;isLeader[edit,vew, delte]&lt;br&gt;isMiniLeadeer[view]&lt;br&gt;&lt;/b&gt;miniLeaderCard" style="whiteSpace=wrap;html=1;fillColor=#6a00ff;strokeColor=#3700CC;fontColor=#ffffff;" parent="1" vertex="1">
                    <mxGeometry x="661" y="110" width="180" height="60" as="geometry"/>
                </mxCell>
                <mxCell id="129" value="miniMentorFine" style="whiteSpace=wrap;html=1;fillColor=#d80073;fontColor=#ffffff;strokeColor=#A50040;" parent="1" vertex="1">
                    <mxGeometry x="-110" y="660" width="120" height="60" as="geometry"/>
                </mxCell>
                <mxCell id="143" value="" style="edgeStyle=none;html=1;fontColor=#6a00ff;" parent="1" source="137" target="142" edge="1">
                    <mxGeometry relative="1" as="geometry"/>
                </mxCell>
                <mxCell id="137" value="isMiniMentorControll[view]&lt;br&gt;isSquadLeader[view,edit, delte]&lt;br&gt;miniMentor" style="whiteSpace=wrap;html=1;fontColor=#ffffff;strokeColor=#A50040;fillColor=#d80073;" parent="1" vertex="1">
                    <mxGeometry x="780" y="-290" width="230" height="60" as="geometry"/>
                </mxCell>
                <mxCell id="144" style="edgeStyle=orthogonalEdgeStyle;html=1;fontColor=#6a00ff;" parent="1" source="139" target="66" edge="1">
                    <mxGeometry relative="1" as="geometry">
                        <mxPoint x="180" y="600.952380952381" as="targetPoint"/>
                        <Array as="points">
                            <mxPoint x="-240" y="600"/>
                        </Array>
                    </mxGeometry>
                </mxCell>
                <mxCell id="226" value="" style="edgeStyle=orthogonalEdgeStyle;html=1;fontColor=#FFFFFF;" parent="1" source="139" target="103" edge="1">
                    <mxGeometry relative="1" as="geometry"/>
                </mxCell>
                <mxCell id="139" value="miniMentorController" style="whiteSpace=wrap;html=1;fontColor=#ffffff;strokeColor=#A50040;fillColor=#d80073;" parent="1" vertex="1">
                    <mxGeometry x="-300" y="10" width="120" height="60" as="geometry"/>
                </mxCell>
                <mxCell id="142" value="docs" style="whiteSpace=wrap;html=1;fillColor=#d80073;strokeColor=#A50040;fontColor=#ffffff;" parent="1" vertex="1">
                    <mxGeometry x="1120" y="-290" width="120" height="60" as="geometry"/>
                </mxCell>
                <mxCell id="159" value="" style="edgeStyle=none;html=1;fontColor=#FFFFFF;" parent="1" source="145" target="158" edge="1">
                    <mxGeometry relative="1" as="geometry"/>
                </mxCell>
                <mxCell id="161" style="edgeStyle=none;html=1;entryX=0.5;entryY=0;entryDx=0;entryDy=0;fontColor=#FFFFFF;" parent="1" source="145" target="160" edge="1">
                    <mxGeometry relative="1" as="geometry"/>
                </mxCell>
                <mxCell id="163" style="edgeStyle=none;html=1;fontColor=#FFFFFF;exitX=1;exitY=0.25;exitDx=0;exitDy=0;" parent="1" source="145" target="148" edge="1">
                    <mxGeometry relative="1" as="geometry"/>
                </mxCell>
                <mxCell id="145" value="firstCheckup" style="whiteSpace=wrap;html=1;fillColor=#6d8764;strokeColor=#3A5431;fontColor=#ffffff;" parent="1" vertex="1">
                    <mxGeometry x="-30" y="830" width="120" height="60" as="geometry"/>
                </mxCell>
                <mxCell id="164" style="edgeStyle=none;html=1;fontColor=#FFFFFF;entryX=1;entryY=1;entryDx=0;entryDy=0;" parent="1" source="148" target="145" edge="1">
                    <mxGeometry relative="1" as="geometry">
                        <mxPoint x="110" y="890" as="targetPoint"/>
                    </mxGeometry>
                </mxCell>
                <mxCell id="239" style="edgeStyle=orthogonalEdgeStyle;html=1;fontColor=#FFFFFF;" parent="1" source="148" target="240" edge="1">
                    <mxGeometry relative="1" as="geometry">
                        <mxPoint x="220" y="1270" as="targetPoint"/>
                    </mxGeometry>
                </mxCell>
                <mxCell id="148" value="secondCheckup" style="whiteSpace=wrap;html=1;fillColor=#6d8764;strokeColor=#3A5431;fontColor=#ffffff;" parent="1" vertex="1">
                    <mxGeometry x="160" y="830" width="120" height="60" as="geometry"/>
                </mxCell>
                <mxCell id="154" style="edgeStyle=none;html=1;fontColor=#6a00ff;entryX=0.5;entryY=0;entryDx=0;entryDy=0;" parent="1" source="153" target="155" edge="1">
                    <mxGeometry relative="1" as="geometry">
                        <mxPoint x="790" y="1100" as="targetPoint"/>
                    </mxGeometry>
                </mxCell>
                <mxCell id="156" style="edgeStyle=none;html=1;fontColor=#6a00ff;entryX=0.5;entryY=0;entryDx=0;entryDy=0;" parent="1" source="153" target="157" edge="1">
                    <mxGeometry relative="1" as="geometry">
                        <mxPoint x="580" y="1140" as="targetPoint"/>
                    </mxGeometry>
                </mxCell>
                <mxCell id="153" value="&lt;b&gt;student[lock]&lt;br&gt;miniLeader[view]&lt;br&gt;isSqudLeader[view]&lt;br&gt;&lt;/b&gt;&lt;b&gt;isLeaderCntroler[view,edit]&lt;/b&gt;&lt;b&gt;&lt;br&gt;isMiniLeaderCntroler[view, edit].?&lt;/b&gt;&lt;br&gt;fine" style="whiteSpace=wrap;html=1;fillColor=#6d8764;strokeColor=#3A5431;fontColor=#ffffff;" parent="1" vertex="1">
                    <mxGeometry x="646" y="920" width="210" height="90" as="geometry"/>
                </mxCell>
                <mxCell id="155" value="&lt;b&gt;isSquadLeader[view]&lt;br&gt;isMiniLeader[view,edit]&lt;br&gt;other[lock]&lt;/b&gt;&lt;br&gt;&lt;b&gt;IsMiniLeader[vew,edit]&lt;/b&gt;&lt;br&gt;miniLeaderFine" style="whiteSpace=wrap;html=1;strokeColor=#3700CC;fontColor=#ffffff;fillColor=#6a00ff;" parent="1" vertex="1">
                    <mxGeometry x="781" y="1060" width="160" height="70" as="geometry"/>
                </mxCell>
                <mxCell id="157" value="&lt;b&gt;isSqudLeader[view]&lt;br&gt;other[lock]&lt;/b&gt;&lt;br&gt;githubFIne" style="whiteSpace=wrap;html=1;fillColor=#6d8764;strokeColor=#3A5431;fontColor=#ffffff;" parent="1" vertex="1">
                    <mxGeometry x="526" y="1060" width="190" height="70" as="geometry"/>
                </mxCell>
                <mxCell id="158" value="githubFine" style="whiteSpace=wrap;html=1;fillColor=#6d8764;strokeColor=#3A5431;fontColor=#ffffff;" parent="1" vertex="1">
                    <mxGeometry x="-110" y="930" width="120" height="60" as="geometry"/>
                </mxCell>
                <mxCell id="160" value="miniLeaderFine" style="whiteSpace=wrap;html=1;fillColor=#6a00ff;strokeColor=#3700CC;fontColor=#ffffff;" parent="1" vertex="1">
                    <mxGeometry x="40" y="930" width="120" height="60" as="geometry"/>
                </mxCell>
                <mxCell id="169" style="edgeStyle=none;html=1;fontColor=#FFFFFF;" parent="1" source="166" target="168" edge="1">
                    <mxGeometry relative="1" as="geometry"/>
                </mxCell>
                <mxCell id="172" style="edgeStyle=none;html=1;entryX=0;entryY=0.5;entryDx=0;entryDy=0;fontColor=#FFFFFF;" parent="1" source="166" target="171" edge="1">
                    <mxGeometry relative="1" as="geometry"/>
                </mxCell>
                <mxCell id="173" style="edgeStyle=none;html=1;fontColor=#FFFFFF;entryX=0;entryY=0.5;entryDx=0;entryDy=0;" parent="1" source="166" target="175" edge="1">
                    <mxGeometry relative="1" as="geometry">
                        <mxPoint x="1370" y="360" as="targetPoint"/>
                    </mxGeometry>
                </mxCell>
                <mxCell id="179" style="edgeStyle=none;html=1;entryX=-0.008;entryY=0.622;entryDx=0;entryDy=0;entryPerimeter=0;fontColor=#FFFFFF;" parent="1" source="166" target="178" edge="1">
                    <mxGeometry relative="1" as="geometry"/>
                </mxCell>
                <mxCell id="180" style="edgeStyle=none;html=1;fontColor=#FFFFFF;entryX=0;entryY=0.5;entryDx=0;entryDy=0;" parent="1" source="166" target="181" edge="1">
                    <mxGeometry relative="1" as="geometry">
                        <mxPoint x="1380" y="80" as="targetPoint"/>
                    </mxGeometry>
                </mxCell>
                <mxCell id="194" style="edgeStyle=none;html=1;entryX=-0.011;entryY=0.6;entryDx=0;entryDy=0;entryPerimeter=0;fontColor=#FFFFFF;" parent="1" source="166" target="193" edge="1">
                    <mxGeometry relative="1" as="geometry"/>
                </mxCell>
                <mxCell id="204" style="edgeStyle=none;html=1;entryX=0;entryY=0.75;entryDx=0;entryDy=0;fontColor=#FFFFFF;" parent="1" source="166" target="203" edge="1">
                    <mxGeometry relative="1" as="geometry"/>
                </mxCell>
                <mxCell id="166" value="i&lt;b&gt;sLeaderControl[vew]&lt;/b&gt;&lt;br&gt;other[vew]&lt;br&gt;squadLeaderInfo" style="whiteSpace=wrap;html=1;strokeColor=#6F0000;fontColor=#ffffff;fillColor=#a20025;" parent="1" vertex="1">
                    <mxGeometry x="1090" y="130" width="180" height="60" as="geometry"/>
                </mxCell>
                <mxCell id="168" value="gihhub" style="whiteSpace=wrap;html=1;fillColor=#a20025;strokeColor=#6F0000;fontColor=#ffffff;" parent="1" vertex="1">
                    <mxGeometry x="1340" y="150" width="120" height="60" as="geometry"/>
                </mxCell>
                <mxCell id="171" value="fbLink" style="whiteSpace=wrap;html=1;fillColor=#a20025;strokeColor=#6F0000;fontColor=#ffffff;" parent="1" vertex="1">
                    <mxGeometry x="1340" y="230" width="120" height="60" as="geometry"/>
                </mxCell>
                <mxCell id="175" value="codwarsLink" style="whiteSpace=wrap;html=1;fillColor=#a20025;strokeColor=#6F0000;fontColor=#ffffff;" parent="1" vertex="1">
                    <mxGeometry x="1340" y="310" width="120" height="60" as="geometry"/>
                </mxCell>
                <mxCell id="178" value="LeaderLevel" style="whiteSpace=wrap;html=1;fillColor=#a20025;strokeColor=#6F0000;fontColor=#ffffff;" parent="1" vertex="1">
                    <mxGeometry x="1340" y="390" width="120" height="60" as="geometry"/>
                </mxCell>
                <mxCell id="182" style="edgeStyle=none;html=1;fontColor=#FFFFFF;" parent="1" source="181" target="183" edge="1">
                    <mxGeometry relative="1" as="geometry">
                        <mxPoint x="1490" y="-20" as="targetPoint"/>
                    </mxGeometry>
                </mxCell>
                <mxCell id="186" style="edgeStyle=none;html=1;entryX=0;entryY=0.5;entryDx=0;entryDy=0;fontColor=#FFFFFF;" parent="1" source="181" target="184" edge="1">
                    <mxGeometry relative="1" as="geometry"/>
                </mxCell>
                <mxCell id="187" style="edgeStyle=none;html=1;fontColor=#FFFFFF;entryX=0;entryY=0.5;entryDx=0;entryDy=0;" parent="1" source="181" target="188" edge="1">
                    <mxGeometry relative="1" as="geometry">
                        <mxPoint x="1669.9999999999995" y="200" as="targetPoint"/>
                        <Array as="points"/>
                    </mxGeometry>
                </mxCell>
                <mxCell id="189" style="edgeStyle=none;html=1;fontColor=#FFFFFF;entryX=0;entryY=0.5;entryDx=0;entryDy=0;" parent="1" source="181" target="190" edge="1">
                    <mxGeometry relative="1" as="geometry">
                        <mxPoint x="1659.9999999999995" y="280" as="targetPoint"/>
                    </mxGeometry>
                </mxCell>
                <mxCell id="191" style="edgeStyle=none;html=1;fontColor=#FFFFFF;entryX=0.003;entryY=0.614;entryDx=0;entryDy=0;entryPerimeter=0;" parent="1" source="181" target="192" edge="1">
                    <mxGeometry relative="1" as="geometry">
                        <mxPoint x="1659.9999999999995" y="350" as="targetPoint"/>
                    </mxGeometry>
                </mxCell>
                <mxCell id="181" value="&lt;b&gt;isSquadLdeader[view]&lt;br&gt;leaderControl[view,edit]&lt;br&gt;other[lock]&lt;br&gt;fine&lt;/b&gt;" style="whiteSpace=wrap;html=1;fillColor=#e3c800;strokeColor=#B09500;fontColor=#000000;" parent="1" vertex="1">
                    <mxGeometry x="1330" y="70" width="160" height="60" as="geometry"/>
                </mxCell>
                <mxCell id="183" value="parentVideoFIne" style="whiteSpace=wrap;html=1;fillColor=#e3c800;strokeColor=#B09500;fontColor=#000000;" parent="1" vertex="1">
                    <mxGeometry x="1620" y="-10" width="120" height="60" as="geometry"/>
                </mxCell>
                <mxCell id="184" value="examOneFine" style="whiteSpace=wrap;html=1;fillColor=#e3c800;strokeColor=#B09500;fontColor=#000000;" parent="1" vertex="1">
                    <mxGeometry x="1620" y="80" width="120" height="60" as="geometry"/>
                </mxCell>
                <mxCell id="188" value="examSecondFine" style="whiteSpace=wrap;html=1;fillColor=#e3c800;strokeColor=#B09500;fontColor=#000000;" parent="1" vertex="1">
                    <mxGeometry x="1620" y="160" width="120" height="60" as="geometry"/>
                </mxCell>
                <mxCell id="190" value="examSeackFine" style="whiteSpace=wrap;html=1;fillColor=#e3c800;strokeColor=#B09500;fontColor=#000000;" parent="1" vertex="1">
                    <mxGeometry x="1620" y="240" width="120" height="60" as="geometry"/>
                </mxCell>
                <mxCell id="192" value="examSeackFine" style="whiteSpace=wrap;html=1;fillColor=#e3c800;strokeColor=#B09500;fontColor=#000000;" parent="1" vertex="1">
                    <mxGeometry x="1620" y="320" width="120" height="60" as="geometry"/>
                </mxCell>
                <mxCell id="195" style="edgeStyle=none;html=1;fontColor=#FFFFFF;entryX=0.461;entryY=0.017;entryDx=0;entryDy=0;entryPerimeter=0;" parent="1" source="193" target="196" edge="1">
                    <mxGeometry relative="1" as="geometry">
                        <mxPoint x="1250" y="610" as="targetPoint"/>
                    </mxGeometry>
                </mxCell>
                <mxCell id="199" style="edgeStyle=none;html=1;fontColor=#FFFFFF;" parent="1" source="193" target="197" edge="1">
                    <mxGeometry relative="1" as="geometry"/>
                </mxCell>
                <mxCell id="200" style="edgeStyle=none;html=1;fontColor=#FFFFFF;entryX=0.454;entryY=-0.011;entryDx=0;entryDy=0;entryPerimeter=0;" parent="1" source="193" target="201" edge="1">
                    <mxGeometry relative="1" as="geometry">
                        <mxPoint x="1470" y="600" as="targetPoint"/>
                    </mxGeometry>
                </mxCell>
                <mxCell id="193" value="isCewLeader[vew]&lt;br&gt;isLeaderController[vew,edit]&lt;br&gt;Cards" style="whiteSpace=wrap;html=1;fillColor=#e3c800;strokeColor=#B09500;fontColor=#000000;" parent="1" vertex="1">
                    <mxGeometry x="1305" y="580" width="190" height="60" as="geometry"/>
                </mxCell>
                <mxCell id="235" style="edgeStyle=orthogonalEdgeStyle;html=1;entryX=0;entryY=0.5;entryDx=0;entryDy=0;fontColor=#FFFFFF;" parent="1" source="196" target="234" edge="1">
                    <mxGeometry relative="1" as="geometry"/>
                </mxCell>
                <mxCell id="196" value="green" style="whiteSpace=wrap;html=1;strokeColor=#B09500;fontColor=#000000;fillColor=#e3c800;" parent="1" vertex="1">
                    <mxGeometry x="1190" y="690" width="120" height="60" as="geometry"/>
                </mxCell>
                <mxCell id="236" style="edgeStyle=orthogonalEdgeStyle;html=1;fontColor=#FFFFFF;" parent="1" source="197" target="234" edge="1">
                    <mxGeometry relative="1" as="geometry"/>
                </mxCell>
                <mxCell id="197" value="yellow" style="whiteSpace=wrap;html=1;strokeColor=#B09500;fontColor=#000000;fillColor=#e3c800;" parent="1" vertex="1">
                    <mxGeometry x="1340" y="690" width="120" height="60" as="geometry"/>
                </mxCell>
                <mxCell id="237" style="edgeStyle=orthogonalEdgeStyle;html=1;entryX=1;entryY=0.5;entryDx=0;entryDy=0;fontColor=#FFFFFF;" parent="1" source="201" target="234" edge="1">
                    <mxGeometry relative="1" as="geometry"/>
                </mxCell>
                <mxCell id="201" value="black" style="whiteSpace=wrap;html=1;strokeColor=#B09500;fontColor=#000000;fillColor=#e3c800;" parent="1" vertex="1">
                    <mxGeometry x="1500" y="690" width="120" height="60" as="geometry"/>
                </mxCell>
                <mxCell id="203" value="pareknFb" style="whiteSpace=wrap;html=1;fillColor=#a20025;strokeColor=#6F0000;fontColor=#ffffff;" parent="1" vertex="1">
                    <mxGeometry x="1340" y="470" width="120" height="60" as="geometry"/>
                </mxCell>
                <mxCell id="206" value="parentVideoFIne" style="whiteSpace=wrap;html=1;fillColor=#e3c800;strokeColor=#B09500;fontColor=#000000;" parent="1" vertex="1">
                    <mxGeometry x="340" y="745" width="120" height="60" as="geometry"/>
                </mxCell>
                <mxCell id="212" value="" style="edgeStyle=none;html=1;fontColor=#FFFFFF;" parent="1" source="207" target="209" edge="1">
                    <mxGeometry relative="1" as="geometry"/>
                </mxCell>
                <mxCell id="207" value="examOneFine" style="whiteSpace=wrap;html=1;fillColor=#e3c800;strokeColor=#B09500;fontColor=#000000;" parent="1" vertex="1">
                    <mxGeometry x="340" y="835" width="120" height="60" as="geometry"/>
                </mxCell>
                <mxCell id="208" value="examSecondFine" style="whiteSpace=wrap;html=1;fillColor=#e3c800;strokeColor=#B09500;fontColor=#000000;" parent="1" vertex="1">
                    <mxGeometry x="340" y="915" width="120" height="60" as="geometry"/>
                </mxCell>
                <mxCell id="213" value="" style="edgeStyle=none;html=1;fontColor=#FFFFFF;" parent="1" source="209" target="210" edge="1">
                    <mxGeometry relative="1" as="geometry"/>
                </mxCell>
                <mxCell id="209" value="examSeackFine" style="whiteSpace=wrap;html=1;fillColor=#e3c800;strokeColor=#B09500;fontColor=#000000;" parent="1" vertex="1">
                    <mxGeometry x="340" y="995" width="120" height="60" as="geometry"/>
                </mxCell>
                <mxCell id="215" value="" style="edgeStyle=none;html=1;fontColor=#FFFFFF;" parent="1" source="210" target="214" edge="1">
                    <mxGeometry relative="1" as="geometry"/>
                </mxCell>
                <mxCell id="210" value="examSeackFine" style="whiteSpace=wrap;html=1;fillColor=#e3c800;strokeColor=#B09500;fontColor=#000000;" parent="1" vertex="1">
                    <mxGeometry x="340" y="1075" width="120" height="60" as="geometry"/>
                </mxCell>
                <mxCell id="220" style="edgeStyle=none;html=1;entryX=0.5;entryY=0;entryDx=0;entryDy=0;fontColor=#FFFFFF;" parent="1" source="214" edge="1">
                    <mxGeometry relative="1" as="geometry">
                        <mxPoint x="400" y="1250" as="targetPoint"/>
                    </mxGeometry>
                </mxCell>
                <mxCell id="214" value="cards" style="whiteSpace=wrap;html=1;fillColor=#e3c800;strokeColor=#B09500;fontColor=#000000;" parent="1" vertex="1">
                    <mxGeometry x="340" y="1160" width="120" height="60" as="geometry"/>
                </mxCell>
                <mxCell id="234" value="finnalCard" style="whiteSpace=wrap;html=1;strokeColor=#B09500;fontColor=#000000;fillColor=#e3c800;" parent="1" vertex="1">
                    <mxGeometry x="1350" y="790" width="120" height="60" as="geometry"/>
                </mxCell>
                <mxCell id="241" style="edgeStyle=orthogonalEdgeStyle;html=1;entryX=1;entryY=0.5;entryDx=0;entryDy=0;fontColor=#FF0080;" parent="1" source="238" target="240" edge="1">
                    <mxGeometry relative="1" as="geometry">
                        <Array as="points">
                            <mxPoint x="400" y="1410"/>
                        </Array>
                    </mxGeometry>
                </mxCell>
                <mxCell id="238" value="finnalCard" style="whiteSpace=wrap;html=1;strokeColor=#B09500;fontColor=#000000;fillColor=#e3c800;" parent="1" vertex="1">
                    <mxGeometry x="340" y="1250" width="120" height="60" as="geometry"/>
                </mxCell>
                <mxCell id="240" value="&lt;font color=&quot;#ff0080&quot;&gt;sumAllfines&lt;/font&gt;" style="whiteSpace=wrap;html=1;strokeColor=#56517e;fillColor=#d0cee2;" parent="1" vertex="1">
                    <mxGeometry x="150" y="1380" width="120" height="60" as="geometry"/>
                </mxCell>
            </root>
        </mxGraphModel>
    </diagram>
</mxfile>